General


Format                           : MPEG-4
Format profile                   : Base Media
Codec ID                         : isom
File size                        : 79.3 MiB
Duration                         : 3mn 31s
Overall bit rate                 : 3 151 Kbps
Encoded date                     : UTC 2012-02-28 04:35:33
Tagged date                      : UTC 2012-02-28 04:35:33

Video
ID                               : 1
Format                           : AVC
Format/Info                      : Advanced Video Codec
Format profile                   : High@L3.0
Format settings, CABAC           : Yes
Format settings, ReFrames        : 2 frames
Codec ID                         : avc1
Codec ID/Info                    : Advanced Video Coding
Duration                         : 3mn 31s
Bit rate mode                    : Variable
Bit rate                         : 3 150 Kbps
Maximum bit rate                 : 6 029 Kbps
Width                            : 640 pixels
Height                           : 480 pixels
Display aspect ratio             : 4:3
Frame rate mode                  : Constant
Frame rate                       : 29.970 fps
Color space                      : YUV
Chroma subsampling               : 4:2:0
Bit depth                        : 8 bits
Scan type                        : Progressive
Bits/(Pixel*Frame)               : 0.342
Stream size                      : 77.6 MiB (98%)

Audio
ID                               : 2
Format                           : AAC
Format/Info                      : Advanced Audio Codec
Format profile                   : LC
Codec ID                         : 40
Duration                         : 3mn 31s
Bit rate mode                    : Variable
Bit rate                         : 59.6 Kbps
Maximum bit rate                 : 73.1 Kbps
Channel(s)                       : 2 channels
Channel positions                : Front: L R
Sampling rate                    : 44.1 KHz
Compression mode                 : Lossy
Stream size                      : 1.50 MiB (2%)


